<svg width="92" height="92" viewBox="0 0 92 92" fill="none" xmlns="http://www.w3.org/2000/svg">
<path d="M90.293 54.2216V48.3125L69.7248 39.6761V46.1392L83.3043 51.2102L83.0913 50.8977V51.6506L83.3043 51.3239L69.7248 56.4091V62.858L90.293 54.2216Z" fill="black"/>
<path d="M25.5254 61.8652C24.3145 60.9473 24.0215 60.0195 24.6465 59.082L26.9023 55.6836C27.6445 54.5703 28.7285 54.5117 30.1543 55.5078C31.248 56.2695 32.6738 57.0605 34.4316 57.8809C36.209 58.6816 38.0742 59.082 40.0273 59.082C41.3945 59.082 42.7129 58.9258 43.9824 58.6133C45.252 58.3008 46.2188 57.6953 46.8828 56.7969C47.5469 55.8984 47.8789 54.834 47.8789 53.6035C47.8789 52.7246 47.7324 51.9531 47.4395 51.2891C47.1465 50.625 46.668 50.0781 46.0039 49.6484C45.3398 49.2188 44.6562 48.8574 43.9531 48.5645C42.7227 48.0566 41.1699 47.5586 39.2949 47.0703C37.4395 46.5625 35.6035 45.957 33.7871 45.2539C32.166 44.6289 30.6816 43.7695 29.334 42.6758C27.9863 41.582 26.9414 40.3516 26.1992 38.9844C25.457 37.6172 25.0859 35.791 25.0859 33.5059C25.0859 30.791 25.9648 28.4668 27.7227 26.5332C29.4805 24.5996 31.502 23.3594 33.7871 22.8125C36.0723 22.2656 38.377 21.9922 40.7012 21.9922C43.0059 21.9922 45.3789 22.3438 47.8203 23.0469C50.2812 23.75 52.1367 24.6289 53.3867 25.6836C54.6172 26.7187 54.9199 27.6562 54.2949 28.4961L51.9219 31.6895C51.1211 32.7832 50.0469 32.8711 48.6992 31.9531C47.8398 31.3672 46.6582 30.7129 45.1543 29.9902C43.6699 29.2676 42.1172 28.9062 40.4961 28.9062C39.3438 28.9062 38.2793 29.0039 37.3027 29.1992C36.3457 29.3945 35.4961 29.8633 34.7539 30.6055C34.0117 31.3477 33.6406 32.2656 33.6406 33.3594C33.6406 34.4141 33.9141 35.2734 34.4609 35.9375C35.0078 36.582 35.6133 37.0703 36.2773 37.4023C36.9414 37.7148 37.6152 37.9785 38.2988 38.1934C40.4082 38.877 42.293 39.4824 43.9531 40.0098C45.6133 40.5176 47.1465 41.084 48.5527 41.709C50.5059 42.5879 52 43.4668 53.0352 44.3457C54.0703 45.2246 54.9199 46.4258 55.584 47.9492C56.2676 49.4727 56.6094 51.2891 56.6094 53.3984C56.6094 56.5234 55.6133 59.1113 53.6211 61.1621C51.6289 63.1934 49.4121 64.502 46.9707 65.0879C44.5488 65.6934 42.1855 65.9961 39.8809 65.9961C36.4824 65.9961 33.7188 65.6641 31.5898 65C29.4609 64.3555 27.4395 63.3105 25.5254 61.8652Z" fill="black"/>
<path d="M72.0953 26.7386L61.5484 65.9219H54.8847L65.4316 26.7386H72.0953Z" fill="url(#paint0_linear_1_10)"/>
<path d="M1.70703 54.2216V48.3125L22.2752 39.6761V46.1392L8.69567 51.2102L8.90874 50.8977V51.6506L8.69567 51.3239L22.2752 56.4091V62.858L1.70703 54.2216Z" fill="black"/>
<defs>
<linearGradient id="paint0_linear_1_10" x1="63.5" y1="22" x2="63.5" y2="67" gradientUnits="userSpaceOnUse">
<stop stop-color="#7A31F0"/>
<stop offset="0.96875" stop-color="#0063BE"/>
<stop offset="1" stop-opacity="0"/>
</linearGradient>
</defs>
</svg>
